<svg width="900" height="600" viewBox="0 0 900 600" fill="none" xmlns="http://www.w3.org/2000/svg">
  <rect width="900" height="600" rx="32" fill="#111827"/>
  <rect x="96" y="88" width="708" height="424" rx="28" fill="#0F172A" stroke="#FBBF24" stroke-opacity="0.28" stroke-width="2"/>
  <circle cx="690" cy="242" r="130" fill="url(#glow)"/>
  <path d="M214 356C214 284.4 268.4 230 340 230H404C475.6 230 530 284.4 530 356V376C530 447.6 475.6 502 404 502H340C268.4 502 214 447.6 214 376V356Z" fill="#F8FAFC" fill-opacity="0.92"/>
  <path d="M250 372C250 308.5 300.5 258 364 258H380C443.5 258 494 308.5 494 372V400C494 463.5 443.5 514 380 514H364C300.5 514 250 463.5 250 400V372Z" fill="#0F172A"/>
  <rect x="556" y="286" width="166" height="110" rx="18" fill="#F8FAFC" fill-opacity="0.88"/>
  <rect x="148" y="156" width="148" height="20" rx="10" fill="#7DD3FC"/>
  <rect x="148" y="194" width="108" height="20" rx="10" fill="#F472B6"/>
  <defs>
    <radialGradient id="glow" cx="0" cy="0" r="1" gradientUnits="userSpaceOnUse" gradientTransform="translate(690 242) rotate(90) scale(130)">
      <stop stop-color="#FBBF24"/>
      <stop offset="1" stop-color="#FBBF24" stop-opacity="0"/>
    </radialGradient>
  </defs>
</svg>
